# xmcd
#
# Track frame offsets: 
#        150
#        18058
#        43666
#        70176
#        89368
#        110720
#        132610
#        153811
#        175823
#
# Disc length: 2583 seconds
#
# Revision: 1
# Processed by: cddbd v1.5.2PL0 Copyright (c) Steve Scherf et al.
# Submitted via: ExactAudioCopy v0.95b4
#
DISCID=700a1509
DTITLE=Habib - Shono!
DYEAR=2006
DGENRE=Bangla
TTITLE0=Shopno Cheyo Modhur
TTITLE1=Jaadu
TTITLE2=Mon Muniya
TTITLE3=Elomelo Mon
TTITLE4=Projapoti
TTITLE5=Ei Shomoy
TTITLE6=Calenderer Pata
TTITLE7=Poran Pakhi
TTITLE8=Akhoni Naambe Brishti
EXTD=
EXTT0=
EXTT1=
EXTT2=
EXTT3=
EXTT4=
EXTT5=
EXTT6=
EXTT7=
EXTT8=
PLAYORDER=
